<svg viewBox="0 0 324 324" fill="none" xmlns="http://www.w3.org/2000/svg">
<mask id="mask0" mask-type="alpha" maskUnits="userSpaceOnUse" x="0" y="0" width="324" height="324">
<circle cx="162" cy="162" r="158" fill="#2D9CDB" stroke="#474445" stroke-width="8"/>
</mask>
<g mask="url(#mask0)">
<circle cx="162" cy="162" r="158" fill="#2D9CDB"/>
<path d="M251.892 323C251.964 321.502 252 319.995 252 318.479C252 267.957 211.706 227 162 227C112.294 227 72 267.957 72 318.479C72 319.995 72.0363 321.502 72.108 323H251.892Z" fill="#E0E0E0" stroke="#474445" stroke-width="8"/>
<path d="M157.667 64H166.333L175 114H149L157.667 64Z" fill="#E0E0E0" stroke="#474445" stroke-width="8" stroke-linecap="round" stroke-linejoin="round"/>
<circle cx="162" cy="52" r="18" fill="#CF8888" stroke="#474445" stroke-width="8" stroke-linecap="round" stroke-linejoin="round"/>
<circle cx="162" cy="184" r="92" fill="#E0E0E0" stroke="#474445" stroke-width="8"/>
<path d="M252 201H228.287C228.287 223.091 198.851 241 162.539 241C126.227 241 96.7904 223.091 96.7904 201H72" stroke="#474445" stroke-width="8" stroke-linejoin="round"/>
<circle cx="162" cy="167" r="41" fill="#F2F2F2" stroke="#4F4F4F" stroke-width="8"/>
<path fill-rule="evenodd" clip-rule="evenodd" d="M162 194C176.912 194 189 181.912 189 167C189 152.088 176.912 140 162 140C158.076 140 154.348 140.837 150.984 142.342C155.719 144.179 159.075 148.779 159.075 154.163C159.075 161.163 153.4 166.838 146.4 166.838C141.89 166.838 137.931 164.482 135.684 160.935C135.236 162.884 135 164.915 135 167C135 181.912 147.088 194 162 194Z" fill="#4F4F4F"/>
<circle cx="162" cy="162" r="158" stroke="#474445" stroke-width="8"/>
</g>
</svg>
