<?xml version="1.0" encoding="UTF-8" standalone="no"?>
<svg width="206px" height="206px" viewBox="0 0 206 206" version="1.1" xmlns="http://www.w3.org/2000/svg" xmlns:xlink="http://www.w3.org/1999/xlink" xmlns:sketch="http://www.bohemiancoding.com/sketch/ns">
    <!-- Generator: Sketch 3.3.1 (12005) - http://www.bohemiancoding.com/sketch -->
    <title>ninja-logo</title>
    <desc>Created with Sketch.</desc>
    <defs></defs>
    <g id="Page-1" stroke="none" stroke-width="1" fill="none" fill-rule="evenodd" sketch:type="MSPage">
        <g id="ninja---small---sprite" sketch:type="MSLayerGroup" transform="translate(3.000000, -217.000000)">
            <g id="ninja-wink" transform="translate(0.000000, 220.000000)" sketch:type="MSShapeGroup">
                <g id="ninja-head-colors">
                    <circle id="Oval-1" fill="#66A3C6" cx="100" cy="100" r="100"></circle>
                    <path d="M99.8333333,121.994141 C145.396825,121.994141 182.333333,146.064401 182.333333,100.398147 C182.333333,77.7676028 140.714132,40.8682976 99.8333333,40.6675121 C58.2206259,40.4631318 17.3333333,77.3624371 17.3333333,100.398147 C17.3333333,146.064401 54.2698415,121.994141 99.8333333,121.994141 Z" id="Oval-2" fill="#F3F1D0"></path>
                </g>
                <g id="ninja-head-black">
                    <path d="M100,200 C155.228475,200 200,155.228475 200,100 C200,44.771525 155.228475,0 100,0 C44.771525,0 0,44.771525 0,100 C0,155.228475 44.771525,200 100,200 Z M99.8333333,121.994141 C145.396825,121.994141 182.333333,146.064401 182.333333,100.398147 C182.333333,77.7676028 140.714132,40.8682976 99.8333333,40.6675121 C58.2206259,40.4631318 17.3333333,77.3624371 17.3333333,100.398147 C17.3333333,146.064401 54.2698415,121.994141 99.8333333,121.994141 Z" id="Oval-1" stroke="#333333" stroke-width="5"></path>
                    <g id="Rectangle-2-+-Rectangle-3-+-Rectangle-4" transform="translate(66.730594, 139.748858)" fill="#333333">
                        <path d="M43.3305323,0.430144173 C42.2845945,0.258994362 39.9662852,0.200452461 38.1606664,0.298938661 L38.1606664,0.298938661 C36.3513661,0.397625668 35.7315822,0.616215144 36.7784763,0.787521441 L58.8886458,4.40547216 C59.9345835,4.57662197 62.2528929,4.63516387 64.0585117,4.53667767 L64.0585117,4.53667767 C65.867812,4.43799067 66.4875959,4.21940119 65.4407018,4.04809489 L43.3305323,0.430144173 L43.3305323,0.430144173 Z" id="Rectangle-3"></path>
                        <path d="M47.6164384,4.87785797 C47.6164384,4.80409165 40.955585,4.74429224 32.7762557,4.74429224 L32.7762557,4.74429224 C24.5802491,4.74429224 17.9360731,4.80402421 17.9360731,4.87785797 L17.9360731,6.43721053 C17.9360731,6.51097684 24.5969264,6.57077626 32.7762557,6.57077626 L32.7762557,6.57077626 C40.9722623,6.57077626 47.6164384,6.51104429 47.6164384,6.43721053 L47.6164384,4.87785797 L47.6164384,4.87785797 Z" id="Rectangle-2"></path>
                        <path d="M40.7671233,10.35731 C40.7671233,10.2835437 37.18051,10.2237443 32.7762557,10.2237443 L32.7762557,10.2237443 C28.3630214,10.2237443 24.7853881,10.2834763 24.7853881,10.35731 L24.7853881,11.9166626 C24.7853881,11.9904289 28.3720015,12.0502283 32.7762557,12.0502283 L32.7762557,12.0502283 C37.18949,12.0502283 40.7671233,11.9904963 40.7671233,11.9166626 L40.7671233,10.35731 L40.7671233,10.35731 Z" id="Rectangle-2-Copy"></path>
                        <path d="M22.8886458,0.430144173 C23.9345835,0.258994362 26.2528929,0.200452461 28.0585117,0.298938661 L28.0585117,0.298938661 C29.867812,0.397625668 30.4875959,0.616215144 29.4407018,0.787521441 L7.33053232,4.40547216 C6.28459454,4.57662197 3.96628517,4.63516387 2.16066641,4.53667767 L2.16066641,4.53667767 C0.351366088,4.43799067 -0.268417848,4.21940119 0.778476257,4.04809489 L22.8886458,0.430144173 L22.8886458,0.430144173 Z" id="Rectangle-4"></path>
                    </g>
                    <g id="eyes" transform="translate(48.000000, 80.319635)" fill="#333333">
                        <g id="eye2" transform="translate(87.789954, 23.059361) scale(-1, 1) translate(-87.789954, -23.059361) translate(71.123288, 12.328767)">
                            <path d="M1.2108046,4.66121404 L0.387774254,8.34330859 L31.7024374,11.6584204 L32.5254678,7.9763258 L1.2108046,4.66121404 L1.2108046,4.66121404 Z" id="Rectangle-1"></path>
                        </g>
                        <g id="eye1">
                            <ellipse id="Oval-3" cx="15.8333333" cy="22.847032" rx="10.5" ry="10.5"></ellipse>
                            <path d="M1.20340539,0.347031963 L0,1.99174993 L30.7965946,5.01369863 L32,3.36898066 L1.20340539,0.347031963 L1.20340539,0.347031963 Z" id="Rectangle-1"></path>
                        </g>
                    </g>
                </g>
            </g>
        </g>
    </g>
</svg>